<?xml version="1.0" standalone="no"?>
<!DOCTYPE svg PUBLIC "-//W3C//DTD SVG 20010904//EN"
 "http://www.w3.org/TR/2001/REC-SVG-20010904/DTD/svg10.dtd">
<svg version="1.0" xmlns="http://www.w3.org/2000/svg"
 width="340.000000pt" height="340.000000pt" viewBox="0 0 340.000000 340.000000"
 preserveAspectRatio="xMidYMid meet">
<metadata>
Created by potrace 1.11, written by Peter Selinger 2001-2013
</metadata>
<g transform="translate(0.000000,340.000000) scale(0.100000,-0.100000)"
fill="#000000" stroke="none">
<path d="M1620 3126 c-232 -271 -344 -524 -357 -807 -12 -267 56 -499 220
-747 64 -96 192 -252 208 -252 10 0 118 120 173 194 108 144 195 321 236 476
30 117 38 331 17 455 -42 238 -176 499 -360 699 l-63 69 -74 -87z"/>
<path d="M626 3040 c-76 -412 -30 -769 139 -1064 60 -106 114 -175 212 -272
70 -71 260 -211 270 -200 2 2 -15 35 -37 74 -56 97 -106 223 -138 350 -25 99
-27 122 -27 317 1 192 3 219 27 322 15 62 43 157 62 211 20 55 36 102 36 105
0 11 -151 95 -245 136 -50 22 -134 56 -187 75 l-96 35 -16 -89z"/>
<path d="M2710 3113 c-8 -3 -57 -21 -108 -40 -52 -19 -128 -50 -170 -70 -83
-37 -212 -113 -212 -124 0 -4 11 -31 24 -60 32 -73 72 -215 93 -330 25 -140
22 -383 -6 -516 -32 -154 -96 -317 -173 -440 l-22 -37 49 28 c285 163 500 461
582 806 45 188 42 528 -5 750 -8 34 -23 44 -52 33z"/>
<path d="M395 2059 c-103 -24 -257 -73 -262 -85 -2 -6 9 -39 26 -71 114 -226
319 -445 531 -566 128 -73 373 -125 527 -111 l74 7 -89 47 c-340 179 -609 455
-728 744 -11 25 -23 45 -29 45 -5 -1 -28 -5 -50 -10z"/>
<path d="M2901 1983 c-137 -285 -407 -550 -724 -711 l-78 -39 78 -6 c149 -13
337 22 479 88 223 102 444 327 574 582 45 88 48 82 -52 112 -60 19 -221 61
-231 61 -2 0 -23 -39 -46 -87z"/>
<path d="M1761 888 c-36 -75 -61 -166 -61 -225 0 -52 15 -57 24 -8 7 36 72
115 96 115 9 0 11 -11 7 -37 -5 -29 -17 -47 -52 -77 -48 -40 -58 -66 -25 -66
12 0 35 21 62 58 l43 57 3 -40 c6 -68 36 -83 80 -42 21 19 24 19 19 4 -4 -10
-7 -24 -7 -31 0 -7 -29 -42 -65 -78 -68 -68 -76 -86 -49 -112 39 -40 85 -1
109 93 9 36 29 83 44 105 41 59 73 126 61 126 -5 0 -10 -3 -10 -7 0 -12 -61
-115 -65 -111 -3 2 4 33 15 69 11 35 20 78 19 94 0 28 -1 28 -13 -10 -20 -62
-53 -122 -78 -139 -20 -14 -24 -14 -37 -1 -13 12 -12 21 2 72 8 32 19 66 22
76 4 9 3 17 -2 17 -6 0 -17 -18 -26 -40 -16 -41 -44 -58 -32 -20 8 25 -10 50
-35 50 -10 0 -34 -18 -54 -40 -49 -55 -50 -18 0 41 44 52 60 84 69 132 6 33 5
37 -13 37 -15 0 -29 -16 -51 -62z m29 -32 c-11 -24 -29 -51 -40 -61 -20 -18
-20 -18 -6 22 8 22 24 60 37 84 20 38 24 41 27 21 2 -12 -6 -42 -18 -66z m0
-209 c0 -2 -12 -14 -27 -28 l-28 -24 24 28 c23 25 31 32 31 24z m131 -163
c-27 -81 -72 -111 -79 -51 -3 20 7 36 44 72 26 24 49 43 51 42 2 -2 -6 -30
-16 -63z"/>
<path d="M2488 926 c-20 -7 -51 -22 -69 -34 -32 -20 -32 -20 -87 -1 -65 23
-101 24 -145 5 -36 -15 -84 -62 -73 -73 3 -4 13 3 22 15 34 48 105 67 177 45
29 -8 54 -17 56 -18 2 -2 -13 -18 -33 -35 -20 -18 -53 -67 -76 -112 -33 -66
-40 -91 -40 -139 0 -46 5 -63 23 -84 42 -49 142 -43 207 12 36 30 36 29 9 -41
l-20 -55 -43 5 c-32 5 -54 1 -87 -14 -56 -26 -70 -38 -103 -86 -87 -128 59
-235 155 -113 12 16 37 63 55 105 19 43 40 76 46 75 7 -1 51 -15 98 -32 116
-41 204 -54 282 -41 73 11 112 36 116 75 6 48 -65 97 -113 79 -26 -10 -16 -20
18 -17 77 8 112 -57 54 -101 -25 -18 -42 -21 -135 -20 -93 0 -120 5 -202 32
-52 18 -101 36 -108 41 -11 6 -7 25 17 95 17 48 31 100 31 114 -1 24 -3 22
-23 -17 -35 -68 -86 -104 -155 -109 -47 -3 -62 0 -82 16 -21 17 -25 28 -25 79
0 76 37 155 105 227 48 51 53 54 83 45 46 -13 158 -11 187 4 33 17 37 51 8 71
-27 19 -79 20 -130 2z m133 -22 c28 -34 -52 -61 -146 -49 -30 3 -55 10 -55 14
0 5 21 18 48 29 58 26 134 29 153 6z m-196 -528 c-13 -45 -75 -162 -97 -184
-13 -12 -38 -25 -55 -28 -26 -5 -37 -1 -57 19 -45 45 -30 104 43 170 22 20 51
39 63 41 46 10 64 12 86 8 18 -4 21 -9 17 -26z"/>
<path d="M2882 898 c-19 -39 -41 -110 -56 -180 -8 -36 -63 -98 -86 -98 -37 0
-42 67 -5 76 30 8 77 61 73 83 -5 23 -36 26 -60 4 -11 -10 -34 -47 -52 -82
-17 -36 -38 -67 -45 -69 -14 -5 -14 9 5 108 9 47 -9 28 -24 -26 -14 -48 -47
-94 -68 -94 -22 0 -17 59 9 110 17 34 29 46 52 51 24 5 27 7 12 14 -63 27
-138 -142 -80 -182 19 -13 23 -13 41 5 17 17 22 18 26 6 8 -20 30 -17 51 6
l18 20 14 -20 c19 -27 59 -25 87 3 l23 23 16 -28 c20 -34 28 -35 63 -4 l28 23
19 -23 c23 -30 29 -30 64 0 29 24 30 25 46 5 20 -23 45 -24 74 -4 24 17 63 76
63 96 0 7 -13 -8 -29 -33 -47 -73 -101 -90 -101 -31 0 22 9 33 40 51 56 32 68
92 19 92 -18 0 -79 -79 -79 -103 0 -19 -54 -77 -71 -77 -38 0 -35 46 10 134
54 106 71 186 40 186 -15 0 -55 -97 -75 -180 -26 -115 -91 -183 -108 -114 -5
19 4 46 33 104 41 80 63 152 54 176 -9 24 -20 16 -41 -28z m24 -18 c-7 -37
-47 -132 -53 -126 -4 4 16 79 36 129 14 36 25 35 17 -3z m99 -37 c-20 -60 -44
-104 -45 -82 0 17 34 121 46 141 16 25 15 -13 -1 -59z m-205 -62 c0 -16 -51
-71 -66 -71 -12 0 -13 4 -3 23 6 12 18 30 27 40 16 18 42 23 42 8z m340 -6 c0
-18 -43 -65 -60 -65 -17 0 -12 17 16 49 28 34 44 39 44 16z"/>
<path d="M2736 841 c-4 -5 -2 -12 3 -15 5 -4 12 -2 15 3 4 5 2 12 -3 15 -5 4
-12 2 -15 -3z"/>
<path d="M2785 841 c-6 -11 9 -23 19 -14 9 9 7 23 -3 23 -6 0 -12 -4 -16 -9z"/>
</g>
</svg>
